<?xml version="1.0" encoding="UTF-8"?>
<svg version="1.1" xmlns="http://www.w3.org/2000/svg" width="263" height="298">
<path d="M0 0 C86.79 0 173.58 0 263 0 C263 98.34 263 196.68 263 298 C176.21 298 89.42 298 0 298 C0 199.66 0 101.32 0 0 Z " fill="#505050" transform="translate(0,0)"/>
<path d="M0 0 C4.07786045 0.59194749 7.23878342 1.73025113 10.99609375 3.359375 C14.28465459 4.73369893 17.62374585 5.85893443 21 7 C35.15832478 12.06314006 35.15832478 12.06314006 39.00927734 19.17529297 C40.77059385 24.03207606 40.88050584 29.22022313 41.23025513 34.33944702 C41.47734479 37.92097075 41.78310144 41.49738203 42.08984375 45.07421875 C42.18125893 46.15262779 42.18125893 46.15262779 42.27452087 47.25282288 C43.12809621 56.94211386 44.78380038 66.49828768 46.45361328 76.07470703 C46.99485468 79.27010092 47.43522582 82.47675931 47.875 85.6875 C48.7288209 91.30786891 50.21317596 96.67342864 51.73828125 102.14453125 C53.18729692 107.56595798 54.26181299 113.06430192 55.375 118.5625 C56.96472376 126.38150535 58.71141488 134.07040226 60.8515625 141.7578125 C62.08891983 146.35775922 63.16910631 150.98628844 64.25 155.625 C66.84819493 166.68315885 69.78141426 177.63340775 72.875 188.5625 C73.1239502 189.44921387 73.37290039 190.33592773 73.62939453 191.24951172 C80.99931805 218.06914859 80.99931805 218.06914859 98.875 238.5625 C102.31195635 240.44547117 105.85346 242.04358333 109.4375 243.625 C123.37027363 249.80541045 123.37027363 249.80541045 127.875 256.5625 C128.35526101 260.80480556 128.16435899 263.02511902 126.125 266.8125 C122.88710738 270.76992432 120.80757709 272.59336931 115.75 273.5 C105.6530669 274.25891981 97.24919506 267.75682385 89.875 261.5625 C81.40397634 253.4809487 76.37307961 243.41117855 72.6875 232.4375 C72.31729736 231.35509033 71.94709473 230.27268066 71.56567383 229.1574707 C66.64652461 214.3858088 62.74202867 199.30618097 58.71382141 184.27342224 C57.16447705 178.53202688 55.48225039 172.84799514 53.68969727 167.17724609 C52.15887407 162.2641156 50.875 157.75000542 50.875 152.5625 C40.46008621 154.11766812 30.12219681 155.84867786 19.81518555 158.01074219 C14.96911987 159.00639953 10.12599415 159.84880738 5.23046875 160.56640625 C4.1027002 160.73342041 2.97493164 160.90043457 1.81298828 161.07250977 C-0.39370463 161.39283616 -2.60237649 161.69988491 -4.81298828 161.99194336 C-12.34059033 162.97952484 -12.34059033 162.97952484 -18.125 167.5625 C-19.80456383 170.52390949 -21.08939937 173.60071363 -22.375 176.75 C-22.78194092 177.71236572 -23.18888184 178.67473145 -23.6081543 179.66625977 C-25.13308888 183.29048347 -26.63179916 186.92512799 -28.125 190.5625 C-28.45058899 191.355354 -28.77617798 192.14820801 -29.1116333 192.96508789 C-29.82688239 194.70696052 -30.54201711 196.44888011 -31.25704956 198.19084167 C-32.38748942 200.94276976 -33.52026618 203.69372747 -34.65332031 206.44458008 C-36.16178444 210.10693144 -37.65829659 213.7738554 -39.14746094 217.4440918 C-39.85454228 219.16987199 -40.56188813 220.89554384 -41.26953125 222.62109375 C-41.58386612 223.40373596 -41.89820099 224.18637817 -42.22206116 224.99273682 C-44.85175746 231.3676279 -47.87752766 237.91650472 -53.125 242.5625 C-59.67434099 243.94368771 -66.03996637 241.67966085 -72.125 239.4375 C-73.44056885 238.96425293 -73.44056885 238.96425293 -74.78271484 238.48144531 C-81.94318941 235.81615013 -88.76871094 233.09693359 -93.125 226.5625 C-93.98373776 219.90728238 -91.51026673 214.93687737 -88.875 209 C-87.95731531 206.86948744 -87.04206783 204.73792389 -86.12890625 202.60546875 C-85.64180176 201.47286621 -85.15469727 200.34026367 -84.65283203 199.17333984 C-81.9392314 192.76008428 -79.38066943 186.28505219 -76.8125 179.8125 C-72.0724753 167.87560839 -67.20161503 156.01255293 -62.08105469 144.23364258 C-55.00766808 127.91765004 -48.45866856 111.42019627 -42.01434326 94.84765625 C-40.47277771 90.88662308 -38.92553064 86.92780996 -37.37890625 82.96875 C-36.72784169 81.30135985 -36.07680027 79.63396066 -35.42578125 77.96655273 C-34.09956257 74.56999471 -32.77261167 71.17372381 -31.4453125 67.77758789 C-28.10788707 59.23364789 -24.78314943 50.68516273 -21.48771667 42.12492371 C-19.85376206 37.88406339 -18.21288103 33.64590033 -16.57113647 29.40805054 C-15.77900742 27.35805408 -14.99008227 25.3068165 -14.20449829 23.25430298 C-13.10798887 20.39028409 -12.00051211 17.5307312 -10.890625 14.671875 C-10.40721901 13.39660194 -10.40721901 13.39660194 -9.91404724 12.0955658 C-5.5738047 1.00328485 -5.5738047 1.00328485 0 0 Z " fill="#FAFAFA" transform="translate(118.125,6.4375)"/>
<path d="M0 0 C5.4367976 0.55852667 9.9183367 1.93957617 14.9375 4.0625 C15.62134766 4.34416016 16.30519531 4.62582031 17.00976562 4.91601562 C18.67613946 5.6035405 20.33850727 6.30076175 22 7 C21.42285513 11.36669988 20.70142152 15.60403718 19.625 19.875 C19.39039063 20.82117188 19.15578125 21.76734375 18.9140625 22.7421875 C8.72848626 59.0446259 -7.59042733 93.71354695 -23.21612549 127.89984131 C-41.48632597 167.30216166 -41.48632597 167.30216166 -57.05957031 207.80395508 C-57.55602051 209.2061731 -57.55602051 209.2061731 -58.0625 210.63671875 C-58.34222656 211.45873779 -58.62195313 212.28075684 -58.91015625 213.12768555 C-60 215 -60 215 -61.85058594 215.86230469 C-64.41937815 216.02686612 -65.94817661 215.53538524 -68.328125 214.56640625 C-69.12734375 214.24736328 -69.9265625 213.92832031 -70.75 213.59960938 C-71.575 213.25736328 -72.4 212.91511719 -73.25 212.5625 C-74.09046875 212.22412109 -74.9309375 211.88574219 -75.796875 211.53710938 C-77.86882572 210.70126562 -79.93603615 209.85533351 -82 209 C-81.46918566 202.57714653 -79.26697013 197.26915776 -76.75 191.375 C-75.92605258 189.40668116 -75.1031301 187.43793295 -74.28125 185.46875 C-73.88550781 184.52515625 -73.48976563 183.5815625 -73.08203125 182.609375 C-71.74489474 179.3848003 -70.48610992 176.139598 -69.25 172.875 C-67.77579541 168.98891647 -66.24021842 165.14213077 -64.625 161.3125 C-62.19113193 155.53397676 -59.9174582 149.69955753 -57.67431641 143.8449707 C-56.1199621 139.80739604 -54.50813569 135.80115 -52.83203125 131.8125 C-48.83006999 122.25738282 -45.027515 112.6210147 -41.1875 103 C-40.41088904 101.05595693 -39.63419679 99.11194632 -38.85742188 97.16796875 C-37.31943087 93.31867911 -35.781867 89.46921929 -34.24462891 85.61962891 C-31.12702788 77.81326359 -28.00453918 70.00885422 -24.88198853 62.20446777 C-23.5930048 58.98274436 -22.304317 55.76090262 -21.015625 52.5390625 C-14.01041667 35.02604167 -7.00520833 17.51302083 0 0 Z " fill="#525252" transform="translate(121,21)"/>
<path d="M0 0 C0.66 0 1.32 0 2 0 C2.11174561 0.78036621 2.22349121 1.56073242 2.33862305 2.36474609 C3.54505928 10.52289962 5.08870883 18.56210581 6.8125 26.625 C9.15642439 37.74924783 11.33255338 48.89270347 13.35083008 60.08056641 C14.18595423 64.69285107 15.04442325 69.2702335 16.140625 73.828125 C17.02325955 77.64704877 17.16642875 81.08892444 17 85 C16.28046143 85.13575439 15.56092285 85.27150879 14.81958008 85.41137695 C11.48337223 86.04240706 8.14781379 86.6767609 4.8125 87.3125 C3.61318848 87.54106689 2.41387695 87.76963379 1.17822266 88.00512695 C-4.62261683 89.12085516 -10.39044008 90.27029666 -16.125 91.6875 C-23.3238918 93.43509304 -30.6471653 94.19770096 -38 95 C-36.82215645 88.72463614 -35.01259575 83.13061288 -32.43359375 77.30078125 C-31.71099155 75.62628172 -30.98951845 73.95129459 -30.26904297 72.27587891 C-29.89527527 71.41109924 -29.52150757 70.54631958 -29.13641357 69.65533447 C-27.2391166 65.22212621 -25.41880778 60.75787784 -23.59765625 56.29296875 C-23.22619476 55.38418976 -22.85473328 54.47541077 -22.47201538 53.53909302 C-21.33459312 50.75560225 -20.19850219 47.97157059 -19.0625 45.1875 C-18.30803703 43.34045626 -17.55347989 41.49345099 -16.79882812 39.64648438 C-16.42478851 38.73085724 -16.0507489 37.8152301 -15.66537476 36.87185669 C-14.91655341 35.03899841 -14.16755258 33.20621344 -13.41836548 31.37350464 C-11.42722734 26.50111648 -9.44203312 21.62640388 -7.46435547 16.74853516 C-6.84457069 15.22369255 -6.84457069 15.22369255 -6.21226501 13.66804504 C-5.41510199 11.70670776 -4.61991475 9.74456602 -3.82691956 7.78153992 C-3.470811 6.90657364 -3.11470245 6.03160736 -2.74780273 5.13012695 C-2.43366928 4.35490189 -2.11953583 3.57967682 -1.79588318 2.78096008 C-1 1 -1 1 0 0 Z " fill="#555555" transform="translate(147,62)"/>
<path d="M0 0 C8.16547059 -0.44810509 14.0001679 -0.44220114 21 4 C22 5 22 5 22.1875 7.9375 C22 11 22 11 20 13 C13.08346457 13.68031496 13.08346457 13.68031496 9.3125 11.3125 C8.549375 10.549375 7.78625 9.78625 7 9 C6.113125 8.175 5.22625 7.35 4.3125 6.5 C2.27934411 4.30199363 1.23430173 2.66023021 0 0 Z " fill="#555555" transform="translate(215,259)"/>
</svg>
